<?xml version="1.0" encoding="UTF-8" standalone="no"?>
<!DOCTYPE svg PUBLIC "-//W3C//DTD SVG 1.1//EN"
 "http://www.w3.org/Graphics/SVG/1.1/DTD/svg11.dtd">
<!-- Generated by graphviz version 2.30.1 (20201013.1554)
 -->
<!-- Title: %3 Pages: 1 -->
<svg width="753pt" height="360pt"
 viewBox="0.00 0.00 753.15 360.00" xmlns="http://www.w3.org/2000/svg" xmlns:xlink="http://www.w3.org/1999/xlink">
<g id="graph0" class="graph" transform="scale(1 1) rotate(0) translate(4 356)">
<title>%3</title>
<polygon fill="#333333" stroke="#333333" points="-4,5 -4,-356 750.155,-356 750.155,5 -4,5"/>
<text text-anchor="middle" x="372.577" y="-9.2" font-family="Times,serif" font-size="16.00" fill="white">Network Map</text>
<!-- SW1 -->
<g id="node1" class="node"><title>SW1</title>
<polygon fill="#006699" stroke="#006699" points="460.655,-225.5 369.655,-225.5 369.655,-152.5 460.655,-152.5 460.655,-225.5"/>
<text text-anchor="middle" x="415.155" y="-185.3" font-family="Helvetica,sans-Serif" font-size="14.00" fill="white">SW1</text>
</g>
<!-- R6 -->
<g id="node5" class="node"><title>R6</title>
<polygon fill="#006699" stroke="#006699" points="453.655,-351.5 376.655,-351.5 376.655,-278.5 453.655,-278.5 453.655,-351.5"/>
<text text-anchor="middle" x="415.155" y="-311.3" font-family="Helvetica,sans-Serif" font-size="14.00" fill="white">R6</text>
</g>
<!-- SW1&#45;&#45;R6 -->
<g id="edge1" class="edge"><title>SW1&#45;&#45;R6</title>
<path fill="none" stroke="green" stroke-dasharray="5,2" d="M415.155,-225.533C415.155,-242.137 415.155,-261.857 415.155,-278.461"/>
<text text-anchor="middle" x="465.155" y="-248.3" font-family="Courier,monospace" font-size="14.00" fill="white"> &#160;&#160;&#160;&#160;&#160;&#160;&#160;&#160;&#160;&#160;&#160;</text>
<text text-anchor="middle" x="390.155" y="-267.261" font-family="Courier,monospace" font-size="14.00" fill="white">Eth0/1</text>
<text text-anchor="middle" x="390.155" y="-229.333" font-family="Courier,monospace" font-size="14.00" fill="white">Eth0/5</text>
</g>
<!-- SW2 -->
<g id="node2" class="node"><title>SW2</title>
<polygon fill="#006699" stroke="#006699" points="706.655,-225.5 615.655,-225.5 615.655,-152.5 706.655,-152.5 706.655,-225.5"/>
<text text-anchor="middle" x="661.155" y="-185.3" font-family="Helvetica,sans-Serif" font-size="14.00" fill="white">SW2</text>
</g>
<!-- R3 -->
<g id="node3" class="node"><title>R3</title>
<polygon fill="#006699" stroke="#006699" points="207.655,-99.5 130.655,-99.5 130.655,-26.5 207.655,-26.5 207.655,-99.5"/>
<text text-anchor="middle" x="169.155" y="-59.3" font-family="Helvetica,sans-Serif" font-size="14.00" fill="white">R3</text>
</g>
<!-- R3&#45;&#45;SW1 -->
<g id="edge5" class="edge"><title>R3&#45;&#45;SW1</title>
<path fill="none" stroke="green" stroke-dasharray="5,2" d="M207.592,-83.375C251.51,-105.512 323.306,-141.702 369.891,-165.184"/>
<text text-anchor="middle" x="357.155" y="-122.3" font-family="Courier,monospace" font-size="14.00" fill="white"> &#160;&#160;&#160;&#160;&#160;&#160;&#160;&#160;&#160;&#160;&#160;</text>
<text text-anchor="middle" x="344.891" y="-153.984" font-family="Courier,monospace" font-size="14.00" fill="white">Eth0/3</text>
<text text-anchor="middle" x="232.592" y="-72.175" font-family="Courier,monospace" font-size="14.00" fill="white">Eth0/0</text>
</g>
<!-- R4 -->
<g id="node8" class="node"><title>R4</title>
<polygon fill="#006699" stroke="#006699" points="84.6548,-225.5 7.65485,-225.5 7.65485,-152.5 84.6548,-152.5 84.6548,-225.5"/>
<text text-anchor="middle" x="46.1548" y="-185.3" font-family="Helvetica,sans-Serif" font-size="14.00" fill="white">R4</text>
</g>
<!-- R3&#45;&#45;R4 -->
<g id="edge6" class="edge"><title>R3&#45;&#45;R4</title>
<path fill="none" stroke="green" stroke-dasharray="5,2" d="M130.691,-75.3064C108.517,-83.7015 81.8172,-97.3303 65.1548,-118 57.3309,-127.706 52.7168,-140.373 50,-152.26"/>
<text text-anchor="middle" x="115.155" y="-122.3" font-family="Courier,monospace" font-size="14.00" fill="white"> &#160;&#160;&#160;&#160;&#160;&#160;&#160;&#160;&#160;&#160;&#160;</text>
<text text-anchor="middle" x="25" y="-141.06" font-family="Courier,monospace" font-size="14.00" fill="white">Eth0/0</text>
<text text-anchor="middle" x="105.691" y="-64.1064" font-family="Courier,monospace" font-size="14.00" fill="white">Eth0/1</text>
</g>
<!-- R5 -->
<g id="node7" class="node"><title>R5</title>
<polygon fill="#006699" stroke="#006699" points="207.655,-225.5 130.655,-225.5 130.655,-152.5 207.655,-152.5 207.655,-225.5"/>
<text text-anchor="middle" x="169.155" y="-185.3" font-family="Helvetica,sans-Serif" font-size="14.00" fill="white">R5</text>
</g>
<!-- R3&#45;&#45;R5 -->
<g id="edge7" class="edge"><title>R3&#45;&#45;R5</title>
<path fill="none" stroke="green" stroke-dasharray="5,2" d="M169.155,-99.5334C169.155,-116.137 169.155,-135.857 169.155,-152.461"/>
<text text-anchor="middle" x="219.155" y="-122.3" font-family="Courier,monospace" font-size="14.00" fill="white"> &#160;&#160;&#160;&#160;&#160;&#160;&#160;&#160;&#160;&#160;&#160;</text>
<text text-anchor="middle" x="144.155" y="-141.261" font-family="Courier,monospace" font-size="14.00" fill="white">Eth0/0</text>
<text text-anchor="middle" x="144.155" y="-103.333" font-family="Courier,monospace" font-size="14.00" fill="white">Eth0/2</text>
</g>
<!-- R2 -->
<g id="node4" class="node"><title>R2</title>
<polygon fill="#006699" stroke="#006699" points="637.655,-99.5 560.655,-99.5 560.655,-26.5 637.655,-26.5 637.655,-99.5"/>
<text text-anchor="middle" x="599.155" y="-59.3" font-family="Helvetica,sans-Serif" font-size="14.00" fill="white">R2</text>
</g>
<!-- R2&#45;&#45;SW1 -->
<g id="edge3" class="edge"><title>R2&#45;&#45;SW1</title>
<path fill="none" stroke="green" stroke-dasharray="5,2" d="M560.793,-96.39C539.207,-114.61 516.482,-133.779 516.155,-134 498.71,-145.828 478.395,-157.119 460.578,-166.29"/>
<text text-anchor="middle" x="584.155" y="-122.3" font-family="Courier,monospace" font-size="14.00" fill="white"> &#160;&#160;&#160;&#160;&#160;&#160;&#160;&#160;&#160;&#160;&#160;</text>
<text text-anchor="middle" x="485.578" y="-155.09" font-family="Courier,monospace" font-size="14.00" fill="white">Eth0/2</text>
<text text-anchor="middle" x="535.793" y="-85.19" font-family="Courier,monospace" font-size="14.00" fill="white">Eth0/0</text>
</g>
<!-- R2&#45;&#45;SW2 -->
<g id="edge4" class="edge"><title>R2&#45;&#45;SW2</title>
<path fill="none" stroke="green" stroke-dasharray="5,2" d="M628.007,-99.522C632.093,-105.482 635.978,-111.762 639.155,-118 644.589,-128.671 648.999,-140.943 652.403,-152.202"/>
<text text-anchor="middle" x="695.155" y="-122.3" font-family="Courier,monospace" font-size="14.00" fill="white"> &#160;&#160;&#160;&#160;&#160;&#160;&#160;&#160;&#160;&#160;&#160;</text>
<text text-anchor="middle" x="623.403" y="-141.002" font-family="Courier,monospace" font-size="14.00" fill="white">Eth0/11</text>
<text text-anchor="middle" x="603.007" y="-103.322" font-family="Courier,monospace" font-size="14.00" fill="white">Eth0/1</text>
</g>
<!-- R1 -->
<g id="node6" class="node"><title>R1</title>
<polygon fill="#006699" stroke="#006699" points="453.655,-99.5 376.655,-99.5 376.655,-26.5 453.655,-26.5 453.655,-99.5"/>
<text text-anchor="middle" x="415.155" y="-59.3" font-family="Helvetica,sans-Serif" font-size="14.00" fill="white">R1</text>
</g>
<!-- R1&#45;&#45;SW1 -->
<g id="edge2" class="edge"><title>R1&#45;&#45;SW1</title>
<path fill="none" stroke="green" stroke-dasharray="5,2" d="M415.155,-99.5334C415.155,-116.137 415.155,-135.857 415.155,-152.461"/>
<text text-anchor="middle" x="465.155" y="-122.3" font-family="Courier,monospace" font-size="14.00" fill="white"> &#160;&#160;&#160;&#160;&#160;&#160;&#160;&#160;&#160;&#160;&#160;</text>
<text text-anchor="middle" x="440.155" y="-141.261" font-family="Courier,monospace" font-size="14.00" fill="white">Eth0/1</text>
<text text-anchor="middle" x="390.155" y="-103.333" font-family="Courier,monospace" font-size="14.00" fill="white">Eth0/0</text>
</g>
</g>
</svg>
